<svg width="120" height="23" viewBox="0 0 120 23" fill="none" xmlns="http://www.w3.org/2000/svg">
<path d="M8.59501 22.9847C5.96793 22.9847 3.87618 22.3077 2.31976 20.9535C0.773253 19.5994 0 17.7413 0 15.3792H6.05219C6.05219 16.1224 6.29012 16.6977 6.76597 17.1049C7.25173 17.502 7.8515 17.7005 8.56527 17.7005C9.21956 17.7005 9.78463 17.5325 10.2605 17.1965C10.7363 16.8606 10.9742 16.4075 10.9742 15.8373C10.9742 15.6133 10.9346 15.4148 10.8553 15.2417C10.7859 15.0584 10.6521 14.8955 10.4538 14.753C10.2555 14.6003 10.0721 14.4781 9.90359 14.3865C9.74498 14.2846 9.48227 14.1777 9.11547 14.0657C8.75858 13.9537 8.481 13.8723 8.28273 13.8214C8.08446 13.7603 7.75236 13.6737 7.28643 13.5618C5.5813 13.1239 4.35203 12.7167 3.5986 12.34C1.6853 11.3931 0.59481 9.91169 0.327146 7.89575C0.287492 7.55976 0.267665 7.20341 0.267665 6.82669C0.267665 4.68858 0.986394 3.0239 2.42385 1.83267C3.87122 0.641434 5.85888 0.0458167 8.38683 0.0458167C10.9346 0.0458167 12.9123 0.677069 14.3201 1.93958C15.7278 3.20208 16.4316 4.9533 16.4316 7.19323H10.5281C10.5281 6.53143 10.32 6.02745 9.90359 5.68127C9.48722 5.32492 8.95685 5.14675 8.31247 5.14675C7.7474 5.14675 7.26164 5.27911 6.85519 5.54382C6.45865 5.79836 6.26038 6.1649 6.26038 6.64343C6.26038 6.84706 6.29508 7.03032 6.36447 7.19323C6.44378 7.35613 6.57761 7.50885 6.76597 7.65139C6.95432 7.78375 7.13277 7.90084 7.3013 8.00266C7.46983 8.09429 7.72262 8.19611 8.05968 8.3081C8.40665 8.40992 8.68423 8.49137 8.89241 8.55246C9.1006 8.61355 9.42774 8.70009 9.87385 8.81209C10.3398 8.93426 10.7016 9.03099 10.9594 9.10226C11.2171 9.17353 11.579 9.28553 12.0449 9.43825C12.5108 9.59097 12.8826 9.73351 13.1602 9.86587C13.4378 9.98805 13.7748 10.1611 14.1714 10.3851C14.5778 10.6091 14.9 10.8331 15.1379 11.0571C15.3858 11.2811 15.6485 11.5611 15.926 11.8971C16.2036 12.2229 16.4168 12.5691 16.5655 12.9356C16.7241 13.2919 16.853 13.7094 16.9521 14.1879C17.0611 14.6664 17.1157 15.1755 17.1157 15.7151C17.1157 18.0365 16.3325 19.8285 14.7662 21.091C13.2097 22.3535 11.1527 22.9847 8.59501 22.9847Z" fill="#E1D4D5"/>
<path d="M29.8738 0.549801C32.1439 0.549801 34.0275 1.29814 35.5245 2.79482C37.0214 4.28132 37.7699 6.16999 37.7699 8.46082C37.7699 10.7517 37.0214 12.6505 35.5245 14.1574C34.0275 15.6541 32.1439 16.4024 29.8738 16.4024H26.6766V22.4502H20.8029V0.549801H29.8738ZM29.1749 11.1335C29.9382 11.1335 30.5528 10.8891 31.0188 10.4004C31.4946 9.9015 31.7325 9.26007 31.7325 8.4761C31.7325 7.69212 31.4946 7.05578 31.0188 6.56707C30.5528 6.06817 29.9382 5.81873 29.1749 5.81873H26.6766V11.1335H29.1749Z" fill="#E1D4D5"/>
<path d="M53.4128 22.4502L52.238 18.8918H44.6839L43.5092 22.4502H37.2191L45.591 0.549801H51.3309L59.8813 22.4502H53.4128ZM50.8105 14.1726L48.4461 7.39177L46.1115 14.1726H50.8105Z" fill="#E1D4D5"/>
<path d="M71.7621 23C69.6307 23 67.6975 22.5011 65.9627 21.5033C64.2377 20.5055 62.8845 19.131 61.9031 17.3798C60.9217 15.6286 60.4309 13.6737 60.4309 11.5153C60.4309 9.34661 60.9217 7.38668 61.9031 5.63546C62.8845 3.87406 64.2377 2.49447 65.9627 1.49668C67.6975 0.498893 69.6307 0 71.7621 0C74.5577 0 76.9419 0.865427 78.9147 2.59628C80.8974 4.31695 82.1068 6.56707 82.543 9.34661H76.5949C76.2281 8.21647 75.6135 7.3154 74.751 6.64343C73.8885 5.97145 72.8972 5.63546 71.7769 5.63546C70.2701 5.63546 69.021 6.19035 68.0296 7.30013C67.0383 8.40992 66.5426 9.81496 66.5426 11.5153C66.5426 13.2054 67.0383 14.6003 68.0296 15.6999C69.021 16.7995 70.2701 17.3493 71.7769 17.3493C72.9567 17.3493 73.9777 16.9878 74.8402 16.2649C75.7126 15.5319 76.2975 14.5544 76.5949 13.3327H82.6025C82.196 16.214 80.9965 18.5456 79.0039 20.3274C77.0113 22.1091 74.5973 23 71.7621 23Z" fill="#E1D4D5"/>
<path d="M91.8809 17.2118H99.9258V22.4502H86.0369V0.549801H99.673V5.77291H91.8809V8.99535H98.8848V13.9436H91.8809V17.2118Z" fill="#E1D4D5"/>
<path d="M111.479 22.9847C108.852 22.9847 106.761 22.3077 105.204 20.9535C103.658 19.5994 102.884 17.7413 102.884 15.3792H108.937C108.937 16.1224 109.174 16.6977 109.65 17.1049C110.136 17.502 110.736 17.7005 111.45 17.7005C112.104 17.7005 112.669 17.5325 113.145 17.1965C113.621 16.8606 113.859 16.4075 113.859 15.8373C113.859 15.6133 113.819 15.4148 113.74 15.2417C113.67 15.0584 113.536 14.8955 113.338 14.753C113.14 14.6003 112.956 14.4781 112.788 14.3865C112.629 14.2846 112.367 14.1777 112 14.0657C111.643 13.9537 111.365 13.8723 111.167 13.8214C110.969 13.7603 110.637 13.6737 110.171 13.5618C108.466 13.1239 107.236 12.7167 106.483 12.34C104.57 11.3931 103.479 9.91169 103.211 7.89575C103.172 7.55976 103.152 7.20341 103.152 6.82669C103.152 4.68858 103.871 3.0239 105.308 1.83267C106.756 0.641434 108.743 0.0458167 111.271 0.0458167C113.819 0.0458167 115.797 0.677069 117.204 1.93958C118.612 3.20208 119.316 4.9533 119.316 7.19323H113.412C113.412 6.53143 113.204 6.02745 112.788 5.68127C112.372 5.32492 111.841 5.14675 111.197 5.14675C110.632 5.14675 110.146 5.27911 109.74 5.54382C109.343 5.79836 109.145 6.1649 109.145 6.64343C109.145 6.84706 109.179 7.03032 109.249 7.19323C109.328 7.35613 109.462 7.50885 109.65 7.65139C109.839 7.78375 110.017 7.90084 110.186 8.00266C110.354 8.09429 110.607 8.19611 110.944 8.3081C111.291 8.40992 111.569 8.49137 111.777 8.55246C111.985 8.61355 112.312 8.70009 112.758 8.81209C113.224 8.93426 113.586 9.03099 113.844 9.10226C114.101 9.17353 114.463 9.28553 114.929 9.43825C115.395 9.59097 115.767 9.73351 116.045 9.86587C116.322 9.98805 116.659 10.1611 117.056 10.3851C117.462 10.6091 117.784 10.8331 118.022 11.0571C118.27 11.2811 118.533 11.5611 118.81 11.8971C119.088 12.2229 119.301 12.5691 119.45 12.9356C119.608 13.2919 119.737 13.7094 119.836 14.1879C119.945 14.6664 120 15.1755 120 15.7151C120 18.0365 119.217 19.8285 117.65 21.091C116.094 22.3535 114.037 22.9847 111.479 22.9847Z" fill="#E1D4D5"/>
</svg>
